<?xml version="1.0" standalone="no"?>
<!DOCTYPE svg PUBLIC "-//W3C//DTD SVG 20010904//EN"
 "http://www.w3.org/TR/2001/REC-SVG-20010904/DTD/svg10.dtd">
<svg version="1.0" xmlns="http://www.w3.org/2000/svg"
 width="493.000000pt" height="468.000000pt" viewBox="0 0 493.000000 468.000000"
 preserveAspectRatio="xMidYMid meet">

<g transform="translate(0.000000,468.000000) scale(0.100000,-0.100000)"
fill="#000000" stroke="none">
<path d="M1226 4501 c-4 -5 -33 -85 -65 -178 -32 -92 -168 -474 -300 -848
-133 -374 -285 -801 -338 -950 -53 -148 -98 -276 -100 -282 -3 -8 3 -13 15
-13 23 0 14 -22 146 350 l94 265 490 3 490 2 29 -77 c17 -43 67 -183 113 -310
l84 -233 218 0 218 0 -11 28 c-23 59 -384 1019 -609 1617 l-237 630 -116 3
c-66 1 -118 -1 -121 -7z m-36 -308 c0 -16 110 -354 160 -493 235 -646 291
-803 287 -806 -3 -3 -709 -6 -934 -4 -7 0 1 35 23 98 40 109 70 194 174 492
39 113 86 248 105 300 18 52 62 177 97 278 54 156 65 180 76 165 6 -9 12 -23
12 -30z"/>
<path d="M2310 3356 c0 -10 23 -15 88 -19 128 -8 198 -44 233 -121 17 -38 19
-75 19 -513 l0 -473 215 0 215 0 0 556 0 556 223 -4 c259 -5 325 -17 462 -83
179 -87 287 -223 359 -453 39 -126 85 -421 86 -559 0 -10 53 -13 230 -13 l230
0 -6 58 c-62 610 -421 1001 -986 1072 -49 6 -343 10 -725 10 -536 0 -643 -2
-643 -14z"/>
<path d="M780 2064 c-7 -19 -9 -38 -6 -41 3 -4 6 -1 6 6 0 7 5 9 10 6 6 -4 10
8 10 29 0 45 -5 45 -20 0z"/>
<path d="M2688 2063 c12 -2 30 -2 40 0 9 3 -1 5 -23 4 -22 0 -30 -2 -17 -4z"/>
<path d="M2574 2031 c-45 -27 -92 -76 -81 -87 2 -2 10 7 17 21 15 28 64 61
119 81 22 8 28 13 16 13 -11 1 -43 -12 -71 -28z"/>
<path d="M2785 2041 c53 -24 68 -44 76 -100 l6 -46 2 41 c1 28 -6 50 -20 68
-22 27 -68 56 -91 56 -7 0 5 -9 27 -19z"/>
<path d="M732 1928 c-12 -28 -20 -53 -18 -55 2 -2 13 19 25 48 12 28 21 53 19
55 -3 2 -14 -20 -26 -48z"/>
<path d="M1700 1959 c-7 -11 -9 -23 -7 -26 3 -2 8 5 12 16 3 12 11 19 16 16 5
-4 9 -1 9 4 0 18 -19 12 -30 -10z"/>
<path d="M1309 1943 c-13 -16 -12 -17 3 -5 9 8 23 10 29 6 8 -4 9 -3 5 4 -10
17 -21 15 -37 -5z"/>
<path d="M2640 1950 c-11 -7 -12 -12 -4 -20 8 -8 13 -6 17 9 3 12 4 21 4 21
-1 0 -9 -5 -17 -10z"/>
<path d="M3579 1942 c-13 -16 -13 -16 5 -2 18 14 19 13 14 -15 -3 -17 -8 -39
-12 -50 -5 -13 -2 -11 8 5 28 46 14 100 -15 62z"/>
<path d="M4101 1934 c-12 -15 -21 -32 -21 -38 0 -6 10 5 22 24 l22 35 7 -25 7
-25 1 28 c1 34 -12 34 -38 1z"/>
<path d="M2590 1940 c8 -5 20 -10 25 -10 6 0 3 5 -5 10 -8 5 -19 10 -25 10 -5
0 -3 -5 5 -10z"/>
<path d="M1721 1924 c0 -11 3 -14 6 -6 3 7 2 16 -1 19 -3 4 -6 -2 -5 -13z"/>
<path d="M1331 1914 c0 -11 3 -14 6 -6 3 7 2 16 -1 19 -3 4 -6 -2 -5 -13z"/>
<path d="M2480 1917 c-1 -40 49 -101 68 -82 3 3 1 5 -4 5 -20 0 -36 19 -49 56
-8 21 -14 31 -15 21z"/>
<path d="M294 1905 c-3 -8 -4 -20 -1 -27 3 -7 6 -3 6 9 1 19 8 22 54 26 l52 3
-53 2 c-38 1 -54 -2 -58 -13z"/>
<path d="M1682 1900 c0 -14 2 -19 5 -12 2 6 2 18 0 25 -3 6 -5 1 -5 -13z"/>
<path d="M3556 1905 c-9 -26 -7 -32 5 -12 6 10 9 21 6 23 -2 3 -7 -2 -11 -11z"/>
<path d="M418 1903 c6 -2 18 -2 25 0 6 3 1 5 -13 5 -14 0 -19 -2 -12 -5z"/>
<path d="M2623 1873 c-7 -31 -14 -39 -38 -44 -22 -5 -24 -7 -8 -8 12 0 24 -9
26 -18 4 -16 5 -17 6 -1 1 10 20 25 46 37 25 11 45 22 45 26 0 3 -13 -1 -30
-10 -41 -21 -43 -20 -36 20 9 47 0 45 -11 -2z"/>
<path d="M475 1890 c11 -5 27 -9 35 -9 9 0 8 4 -5 9 -11 5 -27 9 -35 9 -9 0
-8 -4 5 -9z"/>
<path d="M1707 1879 c-3 -13 -12 -19 -24 -17 -16 3 -18 -3 -15 -43 3 -43 1
-47 -35 -72 -21 -14 -49 -30 -63 -36 -14 -5 -18 -10 -9 -10 33 -2 111 61 129
105 l19 43 63 4 63 3 -62 2 c-56 2 -61 4 -56 22 3 11 3 20 0 20 -2 0 -7 -9
-10 -21z m-20 -51 c-3 -8 -6 -5 -6 6 -1 11 2 17 5 13 3 -3 4 -12 1 -19z"/>
<path d="M4116 1885 c-9 -26 -7 -32 5 -12 6 10 9 21 6 23 -2 3 -7 -2 -11 -11z"/>
<path d="M800 1845 c-5 -53 -9 -55 -60 -41 -14 4 -5 -4 20 -16 29 -15 47 -32
51 -48 7 -24 7 -24 8 -2 1 14 8 22 19 23 14 0 14 2 -3 8 -16 6 -21 20 -25 67
l-6 59 -4 -50z"/>
<path d="M1305 1850 c-10 -22 -21 -40 -25 -40 -5 0 -11 -12 -14 -26 -6 -23 -9
-24 -24 -12 -15 12 -16 11 -3 -5 12 -15 11 -21 -10 -45 l-24 -27 31 28 31 28
16 -23 c15 -22 16 -22 4 9 -10 29 -8 39 16 89 16 31 26 58 24 60 -2 2 -12 -14
-22 -36z"/>
<path d="M2846 1873 c-6 -14 -5 -15 5 -6 7 7 10 15 7 18 -3 3 -9 -2 -12 -12z"/>
<path d="M4071 1864 c0 -11 3 -14 6 -6 3 7 2 16 -1 19 -3 4 -6 -2 -5 -13z"/>
<path d="M1272 1850 c0 -14 2 -19 5 -12 2 6 2 18 0 25 -3 6 -5 1 -5 -13z"/>
<path d="M309 1843 c6 -11 30 -35 53 -53 30 -22 34 -24 13 -5 -16 14 -41 39
-53 53 -19 21 -21 22 -13 5z"/>
<path d="M628 1840 c43 -20 51 -36 30 -60 -7 -7 1 -3 18 11 29 23 36 53 10 43
-7 -3 -29 2 -49 11 -52 22 -60 17 -9 -5z"/>
<path d="M1588 1843 c12 -2 32 -2 45 0 12 2 2 4 -23 4 -25 0 -35 -2 -22 -4z"/>
<path d="M2809 1824 c-36 -39 -76 -65 -138 -90 -31 -13 -49 -24 -41 -24 20 0
116 45 146 69 25 19 69 71 61 71 -2 0 -14 -12 -28 -26z"/>
<path d="M4090 1830 c-10 -18 -14 -20 -21 -9 -6 10 -9 3 -9 -20 0 -21 -10 -48
-26 -70 l-26 -36 26 28 c15 16 31 25 38 21 7 -5 9 -2 5 8 -3 9 3 33 14 53 11
20 18 39 15 42 -2 3 -10 -5 -16 -17z"/>
<path d="M3531 1814 c-1 -12 -11 -34 -23 -50 -13 -15 -17 -25 -10 -20 8 5 12
-2 12 -23 l0 -30 28 27 c29 28 34 45 7 22 -23 -19 -29 -5 -13 27 9 18 12 37 7
49 -7 18 -8 18 -8 -2z"/>
<path d="M965 1790 c-3 -6 1 -7 9 -4 18 7 21 14 7 14 -6 0 -13 -4 -16 -10z"/>
<path d="M4263 1760 c-23 -22 -38 -40 -33 -40 5 0 12 5 15 10 4 6 11 8 16 5 5
-4 9 -1 9 4 0 6 10 11 23 12 20 0 20 1 3 8 -18 7 -18 8 5 24 13 9 19 17 14 17
-6 0 -29 -18 -52 -40z"/>
<path d="M4333 1793 c4 -3 1 -13 -6 -21 -10 -13 -9 -14 3 -10 19 6 26 38 9 38
-7 0 -9 -3 -6 -7z"/>
<path d="M2100 1770 c-28 -15 -31 -18 -12 -17 13 1 30 9 39 19 19 21 18 21
-27 -2z"/>
<path d="M925 1748 l-16 -33 20 25 c20 24 26 40 16 40 -2 0 -12 -15 -20 -32z"/>
<path d="M1179 1761 c-40 -31 -86 -51 -118 -51 -30 0 -39 6 -65 44 -12 17 -14
16 -34 -18 -14 -23 -27 -34 -34 -30 -7 5 -8 3 -3 -5 5 -9 14 -6 34 12 26 25
26 25 50 6 31 -25 72 -24 124 3 23 12 44 21 48 21 3 -1 10 7 17 18 15 24 11
24 -19 0z"/>
<path d="M1850 1755 l-23 -25 26 13 c15 6 27 18 27 25 0 17 -3 16 -30 -13z"/>
<path d="M1937 1754 c-21 -40 -47 -51 -64 -28 -7 10 -13 13 -13 7 0 -6 7 -16
15 -23 13 -11 21 -9 45 9 39 28 37 18 -5 -49 -19 -30 -35 -61 -35 -69 0 -8 10
5 23 29 12 25 28 44 35 43 6 -2 12 5 12 16 0 10 9 30 21 45 16 20 27 25 47 21
27 -5 27 -5 3 5 -17 7 -28 7 -35 0 -15 -15 -24 -12 -28 8 -3 13 -8 10 -21 -14z"/>
<path d="M2591 1773 c-1 -6 -4 -20 -7 -30 -5 -17 -5 -17 6 0 6 10 9 23 6 30
-3 9 -5 9 -5 0z"/>
<path d="M2858 1755 c-9 -21 -9 -29 5 -42 13 -14 21 -15 39 -5 13 6 41 13 63
15 l40 4 -42 1 c-36 2 -43 5 -43 22 0 22 -15 27 -26 8 -4 -7 -3 -8 4 -4 8 5
11 0 9 -16 -3 -15 -11 -23 -23 -23 -24 0 -29 28 -9 49 9 9 12 16 5 16 -6 0
-16 -11 -22 -25z"/>
<path d="M3045 1754 c-44 -27 -41 -33 5 -9 28 14 30 14 30 -3 0 -20 18 -42 34
-42 5 0 2 6 -6 13 -9 6 -18 24 -20 39 l-3 27 -40 -25z"/>
<path d="M3255 1757 c-11 -11 -38 -28 -60 -38 -22 -10 -33 -19 -24 -19 9 0 33
11 54 25 20 15 39 24 42 21 2 -2 -10 -46 -27 -96 -17 -50 -29 -94 -26 -97 12
-12 25 12 41 79 10 40 27 89 38 108 16 26 17 32 5 22 -14 -11 -17 -11 -20 1
-2 11 -8 10 -23 -6z"/>
<path d="M3755 1760 c-9 -10 -37 -27 -62 -36 -43 -17 -45 -17 -76 5 l-32 22
28 -25 c33 -31 39 -31 92 -8 39 18 40 18 56 -2 14 -18 20 -19 40 -9 13 7 42
14 64 16 l40 4 -42 1 c-36 2 -43 5 -43 22 0 22 -15 27 -26 8 -4 -7 -3 -8 4 -4
8 5 11 0 9 -16 -3 -15 -11 -23 -23 -23 -24 0 -29 28 -9 49 9 9 12 16 7 16 -5
0 -17 -9 -27 -20z"/>
<path d="M3943 1753 c-42 -25 -38 -31 6 -8 16 8 31 12 33 9 3 -2 10 2 16 9 19
22 -11 17 -55 -10z"/>
<path d="M1454 1750 c-11 -12 -38 -28 -60 -35 -22 -8 -31 -14 -19 -15 11 0 35
9 54 21 l33 20 15 -20 c8 -12 19 -21 25 -21 7 0 5 6 -4 13 -9 6 -18 22 -20 35
l-3 23 -21 -21z"/>
<path d="M2136 1733 l-18 -38 24 23 25 22 18 -20 c12 -14 29 -19 54 -18 l36 1
-38 4 c-30 3 -42 11 -55 34 -10 16 -20 29 -23 29 -3 0 -13 -17 -23 -37z"/>
<path d="M4485 1745 c-22 -13 -37 -25 -33 -25 9 0 78 41 78 46 0 6 -3 5 -45
-21z"/>
<path d="M410 1754 c0 -3 24 -16 53 -29 50 -24 121 -33 131 -17 2 4 -13 6 -34
4 -27 -3 -57 4 -94 21 -31 14 -56 24 -56 21z"/>
<path d="M624 1738 l-19 -23 23 19 c21 18 27 26 19 26 -2 0 -12 -10 -23 -22z"/>
<path d="M868 1753 c6 -2 18 -2 25 0 6 3 1 5 -13 5 -14 0 -19 -2 -12 -5z"/>
<path d="M2329 1743 c-13 -17 -13 -17 6 -3 11 8 22 16 24 17 2 2 0 3 -6 3 -6
0 -17 -8 -24 -17z"/>
<path d="M2090 1721 c0 -11 4 -22 9 -25 4 -3 6 6 3 19 -5 30 -12 33 -12 6z"/>
<path d="M3324 1721 c-21 -17 -20 -17 35 -13 31 3 65 8 76 13 12 5 0 5 -28 2
-30 -4 -52 -2 -56 5 -4 7 -13 4 -27 -7z"/>
<path d="M3971 1729 c-1 -9 7 -23 17 -30 15 -12 16 -12 6 1 -6 8 -14 22 -17
30 -5 13 -6 12 -6 -1z"/>
<path d="M1702 1714 c10 -10 20 -16 22 -13 3 3 -5 11 -17 18 -21 13 -21 12 -5
-5z"/>
<path d="M1785 1715 c-16 -8 -23 -14 -14 -15 8 0 24 7 35 15 23 18 18 18 -21
0z"/>
<path d="M2290 1720 c-9 -6 -10 -10 -3 -10 6 0 15 5 18 10 8 12 4 12 -15 0z"/>
<path d="M4092 1714 c10 -10 20 -16 22 -13 3 3 -5 11 -17 18 -21 13 -21 12 -5
-5z"/>
<path d="M2570 1709 c0 -5 9 -9 20 -9 11 0 20 2 20 4 0 2 -9 6 -20 9 -11 3
-20 1 -20 -4z"/>
<path d="M4280 1710 c8 -5 22 -9 30 -9 10 0 8 3 -5 9 -27 12 -43 12 -25 0z"/>
<path d="M4400 1710 c-21 -7 -21 -8 -5 -9 11 0 27 4 35 9 18 11 5 11 -30 0z"/>
<path d="M4168 1703 c7 -3 16 -2 19 1 4 3 -2 6 -13 5 -11 0 -14 -3 -6 -6z"/>
<path d="M1917 1610 c-10 -28 -22 -48 -28 -45 -5 4 -9 1 -9 -4 0 -6 5 -11 11
-11 12 0 52 86 47 101 -2 5 -11 -13 -21 -41z"/>
<path d="M2650 1233 c0 -144 -5 -264 -11 -286 -15 -55 -71 -113 -127 -131 -26
-8 -82 -18 -124 -22 -58 -5 -78 -10 -78 -21 0 -23 1309 -13 1427 10 402 81
676 300 826 660 l16 37 -211 -2 -211 -3 -28 -103 c-51 -182 -139 -330 -248
-419 -147 -120 -323 -162 -673 -163 l-128 0 0 345 0 345 -215 0 -215 0 0 -247z"/>
</g>
</svg>
